<svg aria-hidden="true" style="position: absolute; width: 0; height: 0; overflow: hidden;" version="1.1" xmlns="http://www.w3.org/2000/svg" xmlns:xlink="http://www.w3.org/1999/xlink">
<defs>
<symbol id="icon-phone" viewBox="0 0 32 32">
<path stroke-linejoin="round" stroke-linecap="round" stroke-miterlimit="4" stroke-width="1.333" d="M3 9c0 11.045 8.955 20 20 20h3c1.656-0.002 2.998-1.344 3-3v-1.829c-0-0.699-0.478-1.286-1.126-1.453l-0.010-0.002-5.897-1.475c-0.109-0.029-0.235-0.045-0.364-0.045-0.489 0-0.924 0.234-1.197 0.597l-0.003 0.004-1.293 1.724c-0.376 0.501-1.025 0.723-1.613 0.507-4.431-1.659-7.865-5.093-9.488-9.413l-0.036-0.111c-0.216-0.588 0.005-1.237 0.507-1.613l1.724-1.293c0.484-0.361 0.703-0.979 0.556-1.564l-1.475-5.897c-0.168-0.658-0.755-1.136-1.454-1.136-0 0-0.001 0-0.001 0h-1.829c-1.656 0.002-2.998 1.344-3 3v3z"></path>
</symbol>
<symbol id="icon-message-chat-circle" viewBox="0 0 32 32">
<path stroke-linejoin="round" stroke-linecap="round" stroke-miterlimit="4" stroke-width="2.667" d="M8.126 14.972c-0.080-0.491-0.126-1.057-0.126-1.634 0-0.001 0-0.003 0-0.004v0c0-5.891 4.807-10.667 10.737-10.667s10.737 4.776 10.737 10.667c0 1.331-0.245 2.605-0.693 3.779-0.093 0.244-0.14 0.366-0.161 0.461s-0.029 0.161-0.031 0.257c-0.002 0.097 0.011 0.205 0.037 0.42l0.537 4.36c0.058 0.472 0.087 0.708 0.009 0.88-0.070 0.151-0.19 0.268-0.339 0.333l-0.004 0.002c-0.173 0.075-0.409 0.040-0.879-0.029l-4.247-0.623c-0.127-0.025-0.276-0.042-0.429-0.048l-0.005-0c-0.1 0.001-0.169 0.008-0.267 0.028s-0.225 0.068-0.477 0.163c-1.122 0.432-2.42 0.683-3.776 0.683-0.004 0-0.008 0-0.011 0h0.001c-0.558 0-1.105-0.042-1.64-0.124M10.175 29.333c3.953 0 7.158-3.283 7.158-7.333s-3.205-7.333-7.158-7.333c-3.953 0-7.158 3.283-7.158 7.333 0 0.814 0.13 1.597 0.369 2.329 0.101 0.309 0.152 0.464 0.168 0.57 0.017 0.11 0.020 0.172 0.014 0.284-0.006 0.107-0.033 0.227-0.086 0.469l-0.815 3.682 3.993-0.545c0.218-0.030 0.327-0.045 0.422-0.044 0.1 0.001 0.153 0.006 0.252 0.026 0.093 0.019 0.232 0.067 0.51 0.165 0.693 0.252 1.492 0.398 2.326 0.398 0.002 0 0.004 0 0.007 0h-0z"></path>
</symbol>
<symbol id="icon-arrow-n-l" viewBox="0 0 32 32">
<path stroke-linejoin="round" stroke-linecap="round" stroke-miterlimit="4" stroke-width="2.667" d="M26.667 16h-21.333M13.333 24l-8-8 8-8"></path>
</symbol>
<symbol id="icon-arrow-n-r" viewBox="0 0 32 32">
<path stroke-linejoin="round" stroke-linecap="round" stroke-miterlimit="4" stroke-width="2.667" d="M5.333 16h21.333M18.667 8l8 8-8 8"></path>
</symbol>
<symbol id="icon-geo" viewBox="0 0 32 32">
<path stroke-linejoin="round" stroke-linecap="round" stroke-miterlimit="4" stroke-width="1.333" d="M20 14c-0.002 2.208-1.792 3.998-4 4h-0c-2.208-0.002-3.998-1.792-4-4v-0c0.002-2.208 1.792-3.998 4-4h0c2.208 0.002 3.998 1.792 4 4v0z"></path>
<path stroke-linejoin="round" stroke-linecap="round" stroke-miterlimit="4" stroke-width="1.333" d="M26 14c0 9.523-10 15-10 15s-10-5.477-10-15c0.080-5.462 4.526-9.86 10-9.86s9.92 4.397 10 9.852l0 0.008z"></path>
</symbol>
<symbol id="icon-arrow-u" viewBox="0 0 32 32">
<path stroke-linecap="round" stroke-width="2" d="m22 19-6-6-6 6"/></path>
</symbol>
<symbol id="icon-message" viewBox="0 0 32 32">
<path stroke-linejoin="round" stroke-linecap="round" stroke-miterlimit="4" stroke-width="1.333" d="M29 9v14c-0.002 1.656-1.344 2.998-3 3h-20c-1.656-0.002-2.998-1.344-3-3v-14M29 9c-0.002-1.656-1.344-2.998-3-3h-20c-1.656 0.002-2.998 1.344-3 3v0M29 9v0.324c0 0 0 0.001 0 0.002 0 1.074-0.565 2.017-1.414 2.546l-0.013 0.007-10 6.153c-0.448 0.279-0.991 0.445-1.573 0.445s-1.126-0.166-1.586-0.452l0.013 0.007-10-6.152c-0.862-0.537-1.427-1.48-1.427-2.555v0-0.325"></path>
</symbol>
<symbol id="icon-arrow-r-u" viewBox="0 0 32 32">
<path stroke-linejoin="round" stroke-linecap="round" stroke-miterlimit="4" stroke-width="2.667" d="M6.333 25.667l19.333-19.333M25.667 6.333h-18M25.667 6.333v18"></path>
</symbol>
<symbol id="icon-hourglass" viewBox="0 0 32 32">
<path stroke-linejoin="round" stroke-linecap="round" stroke-miterlimit="4" stroke-width="2.667" d="M24.217 2.667h-16.434c-0.617 0-1.117 0.5-1.117 1.117 0 3.7 1.5 7.050 3.925 9.475l1.626 1.626c0.161 0.161 0.242 0.242 0.3 0.32 0.165 0.22 0.264 0.497 0.264 0.797s-0.099 0.577-0.267 0.8l0.002-0.003c-0.058 0.077-0.139 0.158-0.3 0.32l-1.626 1.626c-2.425 2.425-3.925 5.775-3.925 9.475v0c0 0.617 0.5 1.117 1.117 1.117h16.434c0.617 0 1.117-0.5 1.117-1.117-0-3.7-1.5-7.050-3.925-9.475l-1.626-1.626c-0.161-0.161-0.242-0.242-0.3-0.32-0.165-0.219-0.265-0.497-0.265-0.797s0.099-0.578 0.267-0.8l-0.002 0.003c0.058-0.077 0.139-0.158 0.3-0.32l1.626-1.626c2.425-2.425 3.925-5.775 3.925-9.475v-0c0-0.617-0.5-1.117-1.117-1.117z"></path>
</symbol>
<symbol id="icon-arrow-r" viewBox="0 0 32 32">
<path d="M1.067 14.933c-0.589 0-1.067 0.478-1.067 1.067s0.478 1.067 1.067 1.067v0-2.133zM31.688 16.754c0.193-0.193 0.313-0.459 0.313-0.754s-0.12-0.561-0.313-0.754l-6.788-6.788c-0.193-0.193-0.46-0.312-0.754-0.312-0.589 0-1.066 0.477-1.066 1.066 0 0.294 0.119 0.561 0.312 0.754l6.034 6.034-6.034 6.034c-0.193 0.193-0.312 0.46-0.312 0.754 0 0.589 0.477 1.066 1.066 1.066 0.294 0 0.561-0.119 0.754-0.312v0l6.788-6.788zM1.067 17.067h29.867v-2.133h-29.867v2.133z"></path>
</symbol>
<symbol id="icon-success" viewBox="0 0 32 32">
<path d="M16 2c7.732 0.001 13.999 6.268 14 14v0c0 3.713-1.475 7.274-4.101 9.899-2.533 2.534-6.033 4.102-9.899 4.102s-7.366-1.567-9.899-4.102l-0-0c-2.534-2.533-4.102-6.033-4.102-9.899s1.567-7.366 4.102-9.899l0-0c2.533-2.534 6.033-4.101 9.899-4.101h0zM14.256 18.762l-3.11-3.112c-0.216-0.217-0.516-0.351-0.846-0.351-0.001 0-0.002 0-0.003 0h0c-0 0-0.001 0-0.001 0-0.663 0-1.2 0.537-1.2 1.2 0 0.332 0.134 0.632 0.352 0.849v0l3.96 3.96c0.217 0.218 0.517 0.353 0.849 0.353s0.632-0.135 0.849-0.353l8.2-8.202c0.221-0.216 0.358-0.517 0.358-0.85 0-0 0-0 0-0v0c0-0.001 0-0.002 0-0.004 0-0.498-0.303-0.925-0.734-1.108l-0.008-0.003c-0.146-0.060-0.303-0.091-0.462-0.091s-0.315 0.032-0.461 0.094c-0.152 0.065-0.281 0.154-0.39 0.264l-7.354 7.354z"></path>
</symbol>
<symbol id="icon-menu" viewBox="0 0 32 32">
<path d="M5.334 23.027v-1.333h21.333v1.333h-21.333zM5.334 16.667v-1.333h21.333v1.333h-21.333zM5.334 10.307v-1.333h21.333v1.333h-21.333z"></path>
</symbol>
<symbol id="icon-arrow-d" viewBox="0 0 32 32">
<path stroke-linecap="round" stroke-width="2" d="m22 13-6 6-6-6"/></path>
</symbol>
<symbol id="icon-x" viewBox="0 0 32 32">
<path stroke-linejoin="round" stroke-linecap="round" stroke-miterlimit="4" stroke-width="2.667" d="M24 8l-16 16M8 8l16 16"></path>
</symbol>
<symbol id="icon-user" viewBox="0 0 32 32">
<path stroke-linejoin="round" stroke-linecap="round" stroke-miterlimit="4" stroke-width="2.667" d="M26.667 28c0-1.861 0-2.791-0.23-3.548-0.529-1.708-1.848-3.027-3.518-3.546l-0.038-0.010c-0.757-0.23-1.687-0.23-3.548-0.23h-6.667c-1.861 0-2.791 0-3.548 0.23-1.708 0.53-3.026 1.848-3.546 3.518l-0.010 0.038c-0.23 0.757-0.23 1.687-0.23 3.548M16 16c3.314 0 6-2.686 6-6s-2.686-6-6-6v0c-3.314 0-6 2.686-6 6s2.686 6 6 6v0z"></path>
</symbol>
<symbol id="icon-brush" viewBox="0 0 32 32">
<path stroke-linejoin="round" stroke-linecap="round" stroke-miterlimit="4" stroke-width="2.667" d="M17.037 20.001l-5.037-5.037M2.667 29.332c2.667 0 6.144 0.456 7.966-1.367 0.802-0.837 1.296-1.975 1.296-3.229 0-2.578-2.090-4.668-4.668-4.668-1.253 0-2.392 0.494-3.23 1.298l0.002-0.002c-1.823 1.822 0 5.3-1.367 7.967z"></path>
<path stroke-linejoin="round" stroke-linecap="round" stroke-miterlimit="4" stroke-width="2.667" d="M10.667 21.332c-0.655-0.655-0.983-0.983-1.168-1.326-0.202-0.366-0.32-0.803-0.32-1.267 0-0.5 0.138-0.968 0.377-1.368l-0.007 0.012c0.198-0.336 0.538-0.651 1.218-1.28l13.157-12.183c0.52-0.474 1.215-0.764 1.977-0.764 1.624 0 2.94 1.316 2.94 2.94 0 0.762-0.29 1.457-0.766 1.979l0.002-0.002-12.183 13.157c-0.63 0.68-0.944 1.020-1.28 1.218-0.805 0.475-1.8 0.495-2.623 0.050-0.343-0.185-0.671-0.513-1.326-1.168z"></path>
</symbol>
</defs>
</svg>
