<svg xmlns="http://www.w3.org/2000/svg" aria-hidden="true" style="position:absolute;width:0;height:0;overflow:hidden">
  <defs>
    <symbol id="icon-arrow-n-l" viewBox="0 0 32 32">
      <path stroke-linecap="round" stroke-linejoin="round" stroke-width="2.667" d="M26.667 16H5.334m7.999 8-8-8 8-8"/>
    </symbol>
    <symbol id="icon-arrow-r" viewBox="0 0 32 32">
      <path d="M1.067 14.933a1.067 1.067 0 0 0 0 2.134v-2.133zm30.621 1.821a1.065 1.065 0 0 0 0-1.508L24.9 8.458a1.065 1.065 0 1 0-1.508 1.508L29.426 16l-6.034 6.034a1.065 1.065 0 1 0 1.508 1.508l6.788-6.788zm-30.621.313h29.867v-2.133H1.067v2.133z"/>
    </symbol>
    <symbol id="icon-arrow-n-r" viewBox="0 0 32 32">
      <path stroke-linecap="round" stroke-linejoin="round" stroke-width="2.667" d="M5.333 16h21.333M18.667 8l8 8-8 8"/>
    </symbol>
    <symbol id="icon-brush" viewBox="0 0 32 32">
      <path stroke-linecap="round" stroke-linejoin="round" stroke-width="2.667" d="M17.037 20.001 12 14.964M2.667 29.332c2.667 0 6.144.456 7.966-1.367a4.668 4.668 0 0 0-6.6-6.6c-1.823 1.822 0 5.3-1.367 7.967z"/>
      <path stroke-linecap="round" stroke-linejoin="round" stroke-width="2.667" d="M10.667 21.332c-.655-.655-.983-.983-1.168-1.326a2.668 2.668 0 0 1 .05-2.623c.198-.336.538-.651 1.218-1.28L23.924 3.92a2.94 2.94 0 0 1 4.153 4.153L15.894 21.23c-.63.68-.944 1.02-1.28 1.218-.805.475-1.8.495-2.623.05-.343-.185-.671-.513-1.326-1.168z"/>
    </symbol>
    <symbol id="icon-hourglass" viewBox="0 0 32 32">
      <path stroke-linecap="round" stroke-linejoin="round" stroke-width="2.667" d="M24.217 2.667H7.783c-.617 0-1.117.5-1.117 1.117a13.4 13.4 0 0 0 3.925 9.475l1.626 1.626c.161.161.242.242.3.32a1.335 1.335 0 0 1 0 1.594c-.058.077-.139.158-.3.32l-1.626 1.626a13.4 13.4 0 0 0-3.925 9.475c0 .617.5 1.117 1.117 1.117h16.434c.617 0 1.117-.5 1.117-1.117a13.4 13.4 0 0 0-3.925-9.475l-1.626-1.626c-.161-.161-.242-.242-.3-.32a1.332 1.332 0 0 1 0-1.594c.058-.077.139-.158.3-.32l1.626-1.626a13.4 13.4 0 0 0 3.925-9.475c0-.617-.5-1.117-1.117-1.117z"/>
    </symbol>
    <symbol id="icon-arrow-d" viewBox="0 0 32 32">
      <path stroke-linecap="round" stroke-width="2.667" d="m24 12-8 8-8-8"/>
    </symbol>
    <symbol id="icon-arrow-r-u" viewBox="0 0 32 32">
      <path stroke-linecap="round" stroke-linejoin="round" stroke-width="2.667" d="M6.333 25.667 25.666 6.334m.001-.001h-18m18 0v18"/>
    </symbol>
    <symbol id="icon-arrow-u" viewBox="0 0 32 32">
      <path stroke-linecap="round" stroke-width="2.667" d="m24 20-8-8-8 8"/>
    </symbol>
    <symbol id="icon-menu" viewBox="0 0 32 32">
      <path d="M5.334 23.027v-1.333h21.333v1.333H5.334zm0-6.36v-1.333h21.333v1.333H5.334zm0-6.36V8.974h21.333v1.333H5.334z"/>
    </symbol>
    <symbol id="icon-message-chat-circle" viewBox="0 0 32 32">
      <path stroke-linecap="round" stroke-linejoin="round" stroke-width="2.667" d="M8.126 14.972A10.66 10.66 0 0 1 8 13.334C8 7.443 12.807 2.667 18.737 2.667s10.737 4.776 10.737 10.667c0 1.331-.245 2.605-.693 3.779-.093.244-.14.366-.161.461s-.029.161-.031.257c-.002.097.011.205.037.42l.537 4.36c.058.472.087.708.009.88a.667.667 0 0 1-.343.335c-.173.075-.409.04-.879-.029l-4.247-.623a2.965 2.965 0 0 0-.434-.048c-.1.001-.169.008-.267.028s-.225.068-.477.163a10.78 10.78 0 0 1-3.787.683c-.558 0-1.105-.042-1.64-.124m-6.923 5.457c3.953 0 7.158-3.283 7.158-7.333s-3.205-7.333-7.158-7.333c-3.953 0-7.158 3.283-7.158 7.333 0 .814.13 1.597.369 2.329.101.309.152.464.168.57.017.11.02.172.014.284-.006.107-.033.227-.086.469l-.815 3.682 3.993-.545c.218-.03.327-.045.422-.044.1.001.153.006.252.026.093.019.232.067.51.165a6.994 6.994 0 0 0 2.332.398z"/>
    </symbol>
    <symbol id="icon-user" viewBox="0 0 32 32">
      <path stroke-linecap="round" stroke-linejoin="round" stroke-width="2.667" d="M26.667 28c0-1.861 0-2.791-.23-3.548a5.333 5.333 0 0 0-3.556-3.556c-.757-.23-1.687-.23-3.548-.23h-6.667c-1.861 0-2.791 0-3.548.23a5.335 5.335 0 0 0-3.556 3.556c-.23.757-.23 1.687-.23 3.548M16 16a6 6 0 1 0 0-12 6 6 0 0 0 0 12z"/>
    </symbol>
    <symbol id="icon-message" viewBox="0 0 32 32">
      <path stroke-linecap="round" stroke-linejoin="round" stroke-width="1.454" d="M30.182 8.364v15.273a3.272 3.272 0 0 1-3.273 3.273H5.091a3.272 3.272 0 0 1-3.273-3.273V8.364m28.364 0a3.272 3.272 0 0 0-3.273-3.273H5.091a3.272 3.272 0 0 0-3.273 3.273m28.364 0v.353a3.277 3.277 0 0 1-1.556 2.787l-10.909 6.713a3.27 3.27 0 0 1-3.432 0L3.376 11.506A3.266 3.266 0 0 1 1.82 8.719v-.355"/>
    </symbol>
    <symbol id="icon-geo" viewBox="0 0 32 32">
      <path stroke-linecap="round" stroke-linejoin="round" stroke-width="1.524" d="M27.429 12.952C27.429 23.835 16 30.095 16 30.095S4.571 23.835 4.571 12.952a11.428 11.428 0 1 1 22.856 0z"/>
    </symbol>
    <symbol id="icon-phone" viewBox="0 0 32 32">
      <path stroke-linecap="round" stroke-linejoin="round" stroke-width="1.454" d="M1.818 8.364c0 12.049 9.769 21.818 21.818 21.818h3.273a3.272 3.272 0 0 0 3.273-3.273v-1.996c0-.751-.511-1.405-1.239-1.587l-6.433-1.609c-.64-.16-1.312.08-1.706.607l-1.411 1.881c-.41.547-1.119.788-1.76.553a17.502 17.502 0 0 1-10.39-10.39c-.236-.641.006-1.35.553-1.76l1.881-1.411a1.634 1.634 0 0 0 .607-1.706L8.675 3.058a1.633 1.633 0 0 0-1.587-1.24H5.092a3.272 3.272 0 0 0-3.273 3.273v3.273z"/>
    </symbol>
    <symbol id="icon-x" viewBox="0 0 32 32">
      <path stroke-linecap="round" stroke-linejoin="round" stroke-width="2" d="M24 8 8 24M8 8l16 16"/>
    </symbol>
  </defs>
</svg>
